<svg xmlns="http://www.w3.org/2000/svg" width="24" height="28" fill="none"><path fill="#414141" fill-rule="evenodd" d="M5.5 25a2.5 2.5 0 1 1 5 0 2.5 2.5 0 0 1-5 0ZM8 23.5a1.5 1.5 0 1 0 0 3 1.5 1.5 0 0 0 0-3ZM17.5 25a2.5 2.5 0 1 1 5 0 2.5 2.5 0 0 1-5 0Zm2.5-1.5a1.5 1.5 0 1 0 0 3 1.5 1.5 0 0 0 0-3ZM1 4.5a.5.5 0 0 0 0 1h3.58c.76 4.3 1.52 8.56 2.17 12.87a2.5 2.5 0 0 0 2.47 2.13h10.14a2.5 2.5 0 0 0 2.45-2.01l1.44-7.2a1.5 1.5 0 0 0-1.47-1.79H7.16c-.3 0-.58.09-.82.24L5.5 4.91A.5.5 0 0 0 5 4.5H1Zm5.67 6.57a.5.5 0 0 1 .49-.57h14.62a.5.5 0 0 1 .49.6l-1.44 7.2a1.5 1.5 0 0 1-1.47 1.2H9.22a1.5 1.5 0 0 1-1.48-1.28l-1.07-7.15Z" clip-rule="evenodd"/><rect width="11.28" height="11" x="11.86" fill="#F63" rx="4"/><path fill="#fff" d="M18.38 9a.25.25 0 0 1-.17-.06.25.25 0 0 1-.06-.17v-5.6l-1.66 1.28a.23.23 0 0 1-.15.06c-.06 0-.12-.03-.17-.1l-.26-.33a.24.24 0 0 1-.05-.14c0-.08.03-.14.1-.19l2.18-1.68A.47.47 0 0 1 18.4 2h.51a.2.2 0 0 1 .16.07c.05.04.07.1.07.16v6.54c0 .07-.02.12-.07.17a.22.22 0 0 1-.16.06h-.53Z"/></svg>