<svg xmlns="http://www.w3.org/2000/svg" width="152" height="32" fill="none"><path fill="#F63" d="M35.67 16.82H4.29c-.66 0-1.2.56-1.14 1.21C3.85 25.85 11.11 32 19.98 32c8.86 0 16.13-6.15 16.82-13.97a1.13 1.13 0 0 0-1.13-1.21Z"/><path fill="#414141" fill-rule="evenodd" d="M.23 3.33C1.79 1.28 4.6 0 7.7 0c3.1 0 5.92 1.28 7.49 3.33a1.1 1.1 0 0 1-1.76 1.33C12.37 3.26 10.26 2.2 7.7 2.2c-2.54 0-4.65 1.06-5.73 2.46A1.1 1.1 0 0 1 .23 3.33ZM24.77 3.33C26.33 1.28 29.15 0 32.25 0c3.1 0 5.92 1.28 7.49 3.33a1.1 1.1 0 0 1-1.76 1.34C36.91 3.26 34.8 2.2 32.25 2.2c-2.54 0-4.65 1.06-5.72 2.46a1.1 1.1 0 0 1-1.76-1.33Z" clip-rule="evenodd"/><path fill="#414141" d="M57.95 18.22a2.79 2.79 0 0 1-1.49.51 2.66 2.66 0 0 1-2.69-2.64c0-.74.26-1.37.78-1.88a2.61 2.61 0 0 1 1.91-.78 2.7 2.7 0 0 1 1.52.55c.2.13.4.11.5-.03l1-1.46c.1-.13.05-.33-.1-.44a5.02 5.02 0 0 0-1.41-.69 4.77 4.77 0 0 0-3.5.12 4.97 4.97 0 0 0 0 9.23 4.86 4.86 0 0 0 3.5.13c.55-.19 1-.41 1.36-.68.16-.11.24-.3.16-.43l-.99-1.5c-.1-.14-.34-.15-.55-.01ZM60.73 20.54c0 .22.13.34.35.34h6.35c.22 0 .36-.13.36-.34v-1.42c0-.27-.19-.45-.49-.45h-4.2v-1.64h3.2c.23 0 .38-.13.38-.35v-1.25c0-.23-.15-.36-.39-.36H63.1v-1.6h4.2c.24 0 .35-.1.35-.34v-1.51c0-.22-.13-.35-.35-.35h-6.22c-.22 0-.35.13-.35.35v8.92ZM75.17 15.79c.55-.36.9-1.04.9-1.74 0-.88-.29-1.56-.85-2.05a3.5 3.5 0 0 0-2.37-.73h-3.47c-.18 0-.26.08-.26.25v9.11c0 .17.08.25.26.25h3.75c1.06 0 1.9-.25 2.48-.76.6-.5.9-1.22.9-2.13 0-.48-.13-.92-.36-1.32-.24-.4-.57-.7-.98-.88Zm-2.35-2.38c.53 0 .85.3.85.8s-.32.82-.85.82h-1.3v-1.62h1.3Zm-1.3 5.34v-1.93h1.57c.62 0 1.01.36 1.01.94 0 .6-.39.99-1 .99h-1.58ZM77.7 20.54c0 .22.13.34.35.34h6.35c.22 0 .36-.13.36-.34v-1.42c0-.27-.19-.45-.49-.45h-4.2v-1.64h3.19c.24 0 .38-.13.38-.35v-1.25c0-.23-.14-.36-.38-.36h-3.19v-1.6h4.2c.23 0 .35-.1.35-.34v-1.51c0-.22-.13-.35-.35-.35h-6.22c-.22 0-.36.13-.36.35v8.92ZM88.14 11.27h-1.71c-.2 0-.34.15-.34.35v8.92c0 .22.12.35.34.35h1.7c.23 0 .36-.13.36-.35v-2.62h1.16c1.03 0 1.86-.3 2.5-.9.65-.6.97-1.4.97-2.4 0-1.02-.32-1.83-.96-2.44a3.48 3.48 0 0 0-2.51-.91h-1.5Zm.35 4.49v-2.33h1.06c.34 0 .62.12.84.34.22.22.34.5.34.83a1.15 1.15 0 0 1-1.18 1.16h-1.06ZM100.39 11.27h-2.96a3.5 3.5 0 0 0-2.51.91c-.65.6-.96 1.42-.96 2.43 0 1.2.54 2.2 1.5 2.75l-1.7 3.13c-.1.19.01.4.22.4h1.98c.2 0 .28-.07.4-.3l1.42-2.7h.99v2.65c0 .22.13.35.36.35h1.7c.21 0 .34-.13.34-.35v-8.92c0-.2-.14-.35-.34-.35h-.44Zm-2.86 4.55c-.34 0-.62-.12-.85-.35a1.27 1.27 0 0 1-.33-.88 1.13 1.13 0 0 1 1.18-1.16h1.24v2.4h-1.24ZM109.04 11.27c-.17 0-.25.08-.25.25v3.33h-3.62v-3.33c0-.17-.09-.25-.25-.25h-1.87c-.17 0-.26.08-.26.25v9.11c0 .18.09.26.26.26h1.87c.16 0 .25-.08.25-.26v-3.62h3.62v3.62c0 .18.08.26.25.26h1.87c.17 0 .25-.08.25-.26v-9.1c0-.18-.08-.26-.25-.26h-1.87ZM112.34 16.1a5.03 5.03 0 0 0 1.46 3.54 5.13 5.13 0 0 0 7.94-1.02 4.94 4.94 0 0 0 .27-4.48 4.75 4.75 0 0 0-2.67-2.65 5 5 0 0 0-3.94 0 4.95 4.95 0 0 0-3.06 4.61Zm2.4 0c0-.74.26-1.36.76-1.86.51-.51 1.14-.77 1.88-.77.73 0 1.35.26 1.86.77.51.5.77 1.12.77 1.86a2.5 2.5 0 0 1-.77 1.85c-.5.5-1.13.76-1.86.76-.74 0-1.37-.25-1.88-.76a2.5 2.5 0 0 1-.76-1.85ZM129.3 11.26c-.18 0-.33.17-.33.36v2.7c0 .5-.16.9-.47 1.2-.31.29-.73.44-1.25.44-1.04 0-1.65-.61-1.65-1.64v-2.7c0-.2-.16-.36-.37-.36h-1.7c-.18 0-.33.17-.33.36v2.7c0 1.2.36 2.16 1.07 2.88a3.76 3.76 0 0 0 2.78 1.08c.74 0 1.44-.3 1.92-.75v3.01c0 .2.14.34.33.34h1.72c.19 0 .34-.15.34-.34v-8.92c0-.2-.14-.36-.32-.36h-1.74ZM138.71 15.8l3.08-4.08c.16-.2.1-.43-.15-.43h-2.18c-.23 0-.36.02-.5.23l-2.52 3.35h-1.06v-3.35c0-.16-.09-.25-.25-.25h-1.89c-.17 0-.26.09-.26.25v9.1c0 .18.09.26.26.26h1.89c.16 0 .25-.08.25-.25v-3.51h1.36l2.44 3.63c.08.1.2.15.34.15h2.2c.23 0 .29-.23.16-.42l-3.17-4.68ZM148.2 11.58a.49.49 0 0 0-.44-.32h-1.4a.5.5 0 0 0-.45.32l-3.54 8.92c-.08.23.02.4.26.4h1.88c.2 0 .37-.14.43-.33l.43-1.25h3.35l.44 1.26c.07.19.24.32.42.32h1.88c.26 0 .34-.17.26-.4l-3.53-8.92Zm-1.16 2.83 1 2.92h-2l1-2.92Z"/></svg>